<svg width="14" height="14" viewBox="0 0 14 14" fill="none" xmlns="http://www.w3.org/2000/svg">
<path d="M2.79999 1.51454L6.99999 5.71454L11.2 1.52726C11.2827 1.44312 11.3819 1.37706 11.4915 1.33324C11.601 1.28943 11.7184 1.26882 11.8364 1.27272C12.0677 1.28769 12.2857 1.38636 12.4497 1.55031C12.6136 1.71425 12.7123 1.93226 12.7273 2.16363C12.7284 2.27739 12.7065 2.39019 12.6627 2.49521C12.6189 2.60022 12.5543 2.69525 12.4727 2.77454L8.25999 6.99999L12.4727 11.2254C12.6382 11.3858 12.7298 11.6073 12.7273 11.8364C12.7123 12.0677 12.6136 12.2857 12.4497 12.4497C12.2857 12.6136 12.0677 12.7123 11.8364 12.7273C11.7184 12.7312 11.601 12.7106 11.4915 12.6667C11.3819 12.6229 11.2827 12.5569 11.2 12.4727L6.99999 8.28545L2.81272 12.4727C2.73003 12.5569 2.63078 12.6229 2.52124 12.6667C2.4117 12.7106 2.29427 12.7312 2.17636 12.7273C1.94067 12.715 1.71789 12.6159 1.55101 12.449C1.38413 12.2821 1.28499 12.0593 1.27272 11.8236C1.27157 11.7099 1.29354 11.5971 1.33729 11.492C1.38105 11.387 1.44568 11.292 1.52727 11.2127L5.73999 6.99999L1.51454 2.77454C1.43525 2.69418 1.37297 2.59867 1.33142 2.49371C1.28988 2.38874 1.26991 2.27648 1.27272 2.16363C1.28769 1.93226 1.38636 1.71425 1.55031 1.55031C1.71425 1.38636 1.93226 1.28769 2.16363 1.27272C2.28062 1.26716 2.3975 1.28577 2.50699 1.32737C2.61648 1.36898 2.71622 1.43269 2.79999 1.51454Z" fill="white"/>
</svg>
