<svg width="15" height="14" viewBox="0 0 15 14" fill="none" xmlns="http://www.w3.org/2000/svg">
<path fill-rule="evenodd" clip-rule="evenodd" d="M7.74436 1.13051C7.82584 1.21179 7.89049 1.30834 7.9346 1.41465C7.97871 1.52095 8.00142 1.63491 8.00142 1.75001C8.00142 1.8651 7.97871 1.97906 7.9346 2.08537C7.89049 2.19167 7.82584 2.28823 7.74436 2.36951L3.1121 7.00001L7.74436 11.6305C7.82571 11.7119 7.89024 11.8084 7.93427 11.9147C7.9783 12.021 8.00096 12.135 8.00096 12.25C8.00096 12.3651 7.9783 12.479 7.93427 12.5853C7.89024 12.6916 7.82571 12.7882 7.74436 12.8695C7.663 12.9509 7.56642 13.0154 7.46013 13.0594C7.35383 13.1035 7.23991 13.1261 7.12486 13.1261C7.0098 13.1261 6.89588 13.1035 6.78958 13.0594C6.68329 13.0154 6.58671 12.9509 6.50536 12.8695L1.25536 7.61951C1.17387 7.53823 1.10922 7.44167 1.06511 7.33537C1.021 7.22906 0.998291 7.1151 0.998291 7.00001C0.998291 6.88491 1.021 6.77095 1.06511 6.66465C1.10922 6.55834 1.17387 6.46179 1.25536 6.38051L6.50536 1.13051C6.58664 1.04902 6.68319 0.984371 6.7895 0.94026C6.8958 0.896149 7.00976 0.873444 7.12486 0.873444C7.23995 0.873444 7.35391 0.896149 7.46021 0.94026C7.56652 0.984371 7.66308 1.04902 7.74436 1.13051Z" fill="white"/>
<path fill-rule="evenodd" clip-rule="evenodd" d="M1.875 7C1.875 6.76794 1.96719 6.54538 2.13128 6.38128C2.29538 6.21719 2.51794 6.125 2.75 6.125H14.125C14.3571 6.125 14.5796 6.21719 14.7437 6.38128C14.9078 6.54538 15 6.76794 15 7C15 7.23206 14.9078 7.45462 14.7437 7.61872C14.5796 7.78281 14.3571 7.875 14.125 7.875H2.75C2.51794 7.875 2.29538 7.78281 2.13128 7.61872C1.96719 7.45462 1.875 7.23206 1.875 7Z" fill="white"/>
</svg>
