<svg width="15" height="14" viewBox="0 0 15 14" fill="none" xmlns="http://www.w3.org/2000/svg">
<path fill-rule="evenodd" clip-rule="evenodd" d="M7.25552 12.8695C7.17404 12.7882 7.10939 12.6917 7.06527 12.5854C7.02116 12.479 6.99846 12.3651 6.99846 12.25C6.99846 12.1349 7.02116 12.0209 7.06527 11.9146C7.10939 11.8083 7.17404 11.7118 7.25552 11.6305L11.8878 6.99999L7.25552 2.36949C7.17417 2.28814 7.10963 2.19156 7.06561 2.08527C7.02158 1.97897 6.99892 1.86505 6.99892 1.74999C6.99892 1.63494 7.02158 1.52102 7.06561 1.41472C7.10963 1.30843 7.17417 1.21185 7.25552 1.13049C7.33687 1.04914 7.43346 0.984606 7.53975 0.940578C7.64604 0.89655 7.75997 0.87389 7.87502 0.87389C7.99007 0.873889 8.104 0.89655 8.21029 0.940578C8.31659 0.984606 8.41317 1.04914 8.49452 1.13049L13.7445 6.38049C13.826 6.46177 13.8907 6.55833 13.9348 6.66463C13.9789 6.77094 14.0016 6.8849 14.0016 6.99999C14.0016 7.11509 13.9789 7.22905 13.9348 7.33535C13.8907 7.44166 13.826 7.53821 13.7445 7.61949L8.49452 12.8695C8.41324 12.951 8.31669 13.0156 8.21038 13.0597C8.10408 13.1039 7.99012 13.1266 7.87502 13.1266C7.75993 13.1266 7.64597 13.1039 7.53966 13.0597C7.43336 13.0156 7.3368 12.951 7.25552 12.8695Z" fill="white"/>
<path fill-rule="evenodd" clip-rule="evenodd" d="M13.125 7C13.125 7.23206 13.0328 7.45462 12.8687 7.61872C12.7046 7.78281 12.4821 7.875 12.25 7.875L0.875 7.875C0.642936 7.875 0.420375 7.78281 0.256281 7.61872C0.0921869 7.45463 -5.62072e-08 7.23207 -7.64949e-08 7C-9.67827e-08 6.76794 0.0921868 6.54538 0.256281 6.38128C0.420375 6.21719 0.642936 6.125 0.875 6.125L12.25 6.125C12.4821 6.125 12.7046 6.21719 12.8687 6.38128C13.0328 6.54538 13.125 6.76794 13.125 7Z" fill="white"/>
</svg>
