<svg width="17" height="11" viewBox="0 0 17 11" fill="none" xmlns="http://www.w3.org/2000/svg">
<path fill-rule="evenodd" clip-rule="evenodd" d="M14.9687 5.5C14.9687 5.69062 14.893 5.87344 14.7582 6.00823C14.6234 6.14303 14.4406 6.21875 14.25 6.21875L1.3125 6.21875C1.12188 6.21875 0.93906 6.14302 0.804269 6.00823C0.669477 5.87344 0.593752 5.69062 0.593752 5.5C0.593752 5.30938 0.669477 5.12656 0.804269 4.99177C0.93906 4.85697 1.12188 4.78125 1.3125 4.78125L14.25 4.78125C14.4406 4.78125 14.6234 4.85698 14.7582 4.99177C14.893 5.12656 14.9687 5.30938 14.9687 5.5Z" fill="#FF6418"/>
<path fill-rule="evenodd" clip-rule="evenodd" d="M16.1963 4.99118C16.2632 5.05794 16.3164 5.13726 16.3526 5.22458C16.3888 5.3119 16.4075 5.40551 16.4075 5.50005C16.4075 5.59459 16.3888 5.68821 16.3526 5.77553C16.3164 5.86285 16.2632 5.94216 16.1963 6.00893L11.8838 10.3214C11.7488 10.4564 11.5658 10.5322 11.3749 10.5322C11.1841 10.5322 11.001 10.4564 10.8661 10.3214C10.7311 10.1865 10.6553 10.0034 10.6553 9.81255C10.6553 9.62169 10.7311 9.43864 10.8661 9.30368L14.6711 5.50005L10.8661 1.69643C10.7311 1.56147 10.6553 1.37842 10.6553 1.18755C10.6553 0.996688 10.7311 0.81364 10.8661 0.678678C11.001 0.543716 11.1841 0.467895 11.3749 0.467895C11.5658 0.467895 11.7488 0.543716 11.8838 0.678678L16.1963 4.99118Z" fill="#FF6418"/>
</svg>
