<svg width="28" height="28" viewBox="0 0 28 28" fill="none" xmlns="http://www.w3.org/2000/svg">
<path d="M14.0001 8.39173C10.8966 8.39173 8.39193 10.8964 8.39193 13.9999C8.39193 17.1034 10.8966 19.6081 14.0001 19.6081C17.1036 19.6081 19.6083 17.1034 19.6083 13.9999C19.6083 10.8964 17.1036 8.39173 14.0001 8.39173ZM14.0001 17.6449C11.9931 17.6449 10.3552 16.007 10.3552 13.9999C10.3552 11.9929 11.9931 10.355 14.0001 10.355C16.0072 10.355 17.6451 11.9929 17.6451 13.9999C17.6451 16.007 16.0072 17.6449 14.0001 17.6449ZM19.838 6.85501C19.1134 6.85501 18.5283 7.44017 18.5283 8.16478C18.5283 8.88939 19.1134 9.47454 19.838 9.47454C20.5626 9.47454 21.1478 8.89212 21.1478 8.16478C21.148 7.99272 21.1143 7.8223 21.0485 7.6633C20.9828 7.50429 20.8863 7.35982 20.7646 7.23815C20.643 7.11649 20.4985 7.02002 20.3395 6.95427C20.1805 6.88853 20.0101 6.8548 19.838 6.85501ZM24.9322 13.9999C24.9322 12.4906 24.9458 10.9949 24.8611 9.48821C24.7763 7.73821 24.3771 6.18509 23.0974 4.9054C21.815 3.62298 20.2646 3.2265 18.5146 3.14173C17.0052 3.05697 15.5095 3.07064 14.0029 3.07064C12.4935 3.07064 10.9978 3.05697 9.49115 3.14173C7.74115 3.2265 6.18802 3.62572 4.90833 4.9054C3.62591 6.18782 3.22943 7.73821 3.14466 9.48821C3.0599 10.9976 3.07357 12.4933 3.07357 13.9999C3.07357 15.5066 3.0599 17.005 3.14466 18.5117C3.22943 20.2617 3.62865 21.8148 4.90833 23.0945C6.19075 24.3769 7.74115 24.7734 9.49115 24.8581C11.0005 24.9429 12.4962 24.9292 14.0029 24.9292C15.5122 24.9292 17.0079 24.9429 18.5146 24.8581C20.2646 24.7734 21.8177 24.3742 23.0974 23.0945C24.3798 21.812 24.7763 20.2617 24.8611 18.5117C24.9486 17.005 24.9322 15.5093 24.9322 13.9999ZM22.5259 20.4476C22.3263 20.9452 22.0857 21.3171 21.7001 21.6999C21.3146 22.0855 20.9454 22.3261 20.4478 22.5257C19.0095 23.0972 15.5943 22.9687 14.0001 22.9687C12.406 22.9687 8.98802 23.0972 7.54974 22.5285C7.05208 22.3288 6.68021 22.0882 6.2974 21.7027C5.91185 21.3171 5.67122 20.948 5.47161 20.4503C4.90286 19.0093 5.03138 15.5941 5.03138 13.9999C5.03138 12.4058 4.90286 8.98782 5.47161 7.54954C5.67122 7.05189 5.91185 6.68001 6.2974 6.2972C6.68294 5.91439 7.05208 5.67103 7.54974 5.47142C8.98802 4.90267 12.406 5.03118 14.0001 5.03118C15.5943 5.03118 19.0122 4.90267 20.4505 5.47142C20.9482 5.67103 21.3201 5.91165 21.7029 6.2972C22.0884 6.68275 22.329 7.05189 22.5286 7.54954C23.0974 8.98782 22.9689 12.4058 22.9689 13.9999C22.9689 15.5941 23.0974 19.0093 22.5259 20.4476Z" fill="#FF6418"/>
</svg>
