<svg width="15" height="9" viewBox="0 0 15 9" fill="none" xmlns="http://www.w3.org/2000/svg">
<path fill-rule="evenodd" clip-rule="evenodd" d="M12.8437 4.5C12.8437 4.65747 12.7811 4.8085 12.6698 4.91985C12.5584 5.03119 12.4074 5.09375 12.2499 5.09375L1.56244 5.09375C1.40497 5.09375 1.25394 5.03119 1.14259 4.91984C1.03124 4.80849 0.968689 4.65747 0.968689 4.5C0.968689 4.34253 1.03124 4.1915 1.14259 4.08015C1.25394 3.96881 1.40497 3.90625 1.56244 3.90625L12.2499 3.90625C12.4074 3.90625 12.5584 3.96881 12.6698 4.08016C12.7811 4.19151 12.8437 4.34253 12.8437 4.5Z" fill="#FF6418"/>
<path fill-rule="evenodd" clip-rule="evenodd" d="M13.8579 4.07964C13.9131 4.1348 13.957 4.20032 13.9869 4.27245C14.0169 4.34459 14.0323 4.42192 14.0323 4.50002C14.0323 4.57812 14.0169 4.65545 13.9869 4.72758C13.957 4.79972 13.9131 4.86524 13.8579 4.92039L10.2954 8.48289C10.1839 8.59438 10.0326 8.65702 9.87498 8.65702C9.7173 8.65702 9.56609 8.59438 9.4546 8.48289C9.34311 8.3714 9.28048 8.22019 9.28048 8.06252C9.28048 7.90485 9.34311 7.75363 9.4546 7.64214L12.5979 4.50002L9.4546 1.35789C9.34311 1.2464 9.28048 1.09519 9.28048 0.937518C9.28048 0.779846 9.34311 0.628633 9.4546 0.517143C9.56609 0.405652 9.71731 0.343017 9.87498 0.343017C10.0326 0.343017 10.1839 0.405652 10.2954 0.517143L13.8579 4.07964Z" fill="#FF6418"/>
</svg>
