<svg width="19" height="19" viewBox="0 0 19 19" fill="none" xmlns="http://www.w3.org/2000/svg">
<path d="M5.93207 14.9318C4.95707 14.9318 4.16821 15.7295 4.16821 16.7045C4.16821 17.6795 4.95707 18.4773 5.93207 18.4773C6.90707 18.4773 7.7048 17.6795 7.7048 16.7045C7.7048 15.7295 6.90707 14.9318 5.93207 14.9318ZM14.7957 14.9318C13.8207 14.9318 13.0318 15.7295 13.0318 16.7045C13.0318 17.6795 13.8207 18.4773 14.7957 18.4773C15.7707 18.4773 16.5684 17.6795 16.5684 16.7045C16.5684 15.7295 15.7707 14.9318 14.7957 14.9318ZM6.90707 10.5H13.5105C14.1753 10.5 14.7603 10.1366 15.0616 9.58705L18.483 3.37364L16.9318 2.52273L13.5105 8.72727H7.28821L3.5123 0.75H0.613892V2.52273H2.38662L5.57753 9.25023L4.38094 11.413C3.73389 12.6007 4.5848 14.0455 5.93207 14.0455H16.5684V12.2727H5.93207L6.90707 10.5Z" fill="white"/>
</svg>
