<svg width="24" height="24" viewBox="0 0 24 24" fill="none" xmlns="http://www.w3.org/2000/svg">
<path d="M17.625 16.4999H17.25V14.9999H17.625C18.5201 15.0357 19.3928 14.7145 20.051 14.1069C20.7093 13.4992 21.0992 12.655 21.135 11.7599C21.1708 10.8648 20.8496 9.99215 20.242 9.3339C19.6343 8.67564 18.7901 8.28573 17.895 8.24992H17.25L17.175 7.63492C17.0086 6.37226 16.3889 5.21313 15.4313 4.37346C14.4738 3.53379 13.2436 3.07083 11.97 3.07083C10.6964 3.07083 9.46628 3.53379 8.5087 4.37346C7.55112 5.21313 6.93141 6.37226 6.76502 7.63492L6.75002 8.24992H6.10502C5.20991 8.28573 4.36569 8.67564 3.75807 9.3339C3.15045 9.99215 2.82921 10.8648 2.86502 11.7599C2.90082 12.655 3.29074 13.4992 3.94899 14.1069C4.60724 14.7145 5.47991 15.0357 6.37502 14.9999H6.75002V16.4999H6.37502C5.17232 16.4923 4.01489 16.0404 3.12526 15.231C2.23562 14.4216 1.67658 13.3119 1.55561 12.1153C1.43465 10.9187 1.7603 9.71961 2.46996 8.74856C3.17961 7.77752 4.22318 7.10308 5.40002 6.85492C5.7238 5.34481 6.55564 3.9914 7.75675 3.02052C8.95786 2.04965 10.4556 1.52002 12 1.52002C13.5444 1.52002 15.0422 2.04965 16.2433 3.02052C17.4444 3.9914 18.2762 5.34481 18.6 6.85492C19.7769 7.10308 20.8204 7.77752 21.5301 8.74856C22.2397 9.71961 22.5654 10.9187 22.4444 12.1153C22.3235 13.3119 21.7644 14.4216 20.8748 15.231C19.9851 16.0404 18.8277 16.4923 17.625 16.4999Z" fill="#FF6418"/>
<path d="M12.75 19.6275V10.5H11.25V19.6275L9.3075 17.6925L8.25 18.75L12 22.5L15.75 18.75L14.6925 17.6925L12.75 19.6275Z" fill="#FF6418"/>
</svg>
