<svg width="23" height="24" viewBox="0 0 23 24" fill="none" xmlns="http://www.w3.org/2000/svg">
<g clip-path="url(#clip0)">
<path d="M10.9236 0.403737C9.07789 0.426019 5.10967 0.729331 2.89017 2.76555C1.2392 4.40143 0.662767 6.82002 0.595205 9.81074C0.539142 12.7907 0.47158 18.3869 5.8658 19.9106V22.2315C5.8658 22.2315 5.83202 23.1601 6.44583 23.3506C7.20196 23.5899 7.63249 22.8755 8.35124 22.1078L9.69171 20.592C13.3825 20.8989 16.2093 20.1916 16.5349 20.0867C17.2839 19.8474 21.5022 19.3083 22.1915 13.7114C22.8987 7.93121 21.8472 4.2893 19.949 2.64193H19.9375C19.3646 2.11436 17.0625 0.4368 11.9191 0.418112C11.9191 0.418112 11.5375 0.392237 10.9236 0.403019V0.403737ZM10.9869 2.02883C11.5109 2.02524 11.8293 2.04752 11.8293 2.04752C16.1827 2.05902 18.2606 3.3693 18.7508 3.81061C20.3493 5.18055 21.173 8.4638 20.57 13.2895C19.9971 17.9686 16.5759 18.2647 15.9427 18.4666C15.6731 18.5529 13.1834 19.1667 10.0468 18.9647C10.0468 18.9647 7.71083 21.7837 6.98058 22.5096C6.86486 22.6368 6.72974 22.6742 6.64349 22.6555C6.51986 22.6253 6.48249 22.4722 6.48967 22.2624L6.51196 18.4106C1.93711 17.1456 2.20664 12.3724 2.25552 9.87902C2.31158 7.38568 2.77949 5.34586 4.17242 3.96443C6.04764 2.26889 9.41714 2.04033 10.9855 2.02883H10.9869ZM11.3319 4.52146C11.2942 4.52108 11.2569 4.52815 11.222 4.54228C11.1871 4.5564 11.1553 4.5773 11.1285 4.60376C11.1017 4.63021 11.0804 4.66171 11.0659 4.69644C11.0513 4.73116 11.0438 4.76843 11.0437 4.80608C11.0437 4.96708 11.1745 5.0943 11.3319 5.0943C12.0445 5.08075 12.7528 5.20841 13.4159 5.46994C14.0789 5.73146 14.6837 6.12167 15.1952 6.61805C16.2395 7.63221 16.7484 8.99496 16.7678 10.7767C16.7678 10.9341 16.895 11.065 17.056 11.065V11.0535C17.1319 11.0537 17.2048 11.0238 17.2588 10.9705C17.3128 10.9172 17.3435 10.8447 17.3442 10.7688C17.3791 9.93016 17.2431 9.09315 16.9445 8.30867C16.6458 7.52419 16.1908 6.80864 15.607 6.20549C14.4692 5.09358 13.0274 4.52074 11.3319 4.52074V4.52146ZM7.54336 5.18055C7.33992 5.15082 7.13243 5.19166 6.95542 5.29627H6.94033C6.52939 5.53715 6.1592 5.8416 5.84352 6.1983C5.58117 6.50161 5.43886 6.80852 5.40149 7.10393C5.3792 7.28002 5.3943 7.45611 5.44677 7.6243L5.46546 7.6358C5.76086 8.50405 6.14683 9.33924 6.61833 10.1256C7.22569 11.2302 7.97314 12.2519 8.84214 13.1651L8.86802 13.2025L8.90899 13.2327L8.93486 13.2629L8.96505 13.2888C9.88162 14.1603 10.9057 14.9113 12.0125 15.5234C13.2775 16.2119 14.0452 16.5375 14.5059 16.6726V16.6798C14.641 16.7208 14.7639 16.7395 14.8875 16.7395C15.2802 16.7107 15.6519 16.5513 15.9434 16.2867C16.2985 15.9709 16.5995 15.5992 16.8346 15.1863V15.1791C17.0553 14.7636 16.9805 14.3705 16.6621 14.1046C16.0245 13.5472 15.3349 13.0521 14.6029 12.6261C14.1127 12.3601 13.6146 12.5211 13.4127 12.7907L12.9821 13.3333C12.7615 13.6029 12.3604 13.5655 12.3604 13.5655L12.3489 13.5727C9.3582 12.8086 8.56039 9.78055 8.56039 9.78055C8.56039 9.78055 8.52302 9.36871 8.79974 9.15883L9.3388 8.72471C9.59683 8.51483 9.77652 8.01746 9.4998 7.52655C9.07674 6.79354 8.58275 6.10382 8.02492 5.46733C7.90298 5.31728 7.73189 5.21519 7.54192 5.17911L7.54336 5.18055ZM11.8293 6.03443C11.4476 6.03443 11.4476 6.61086 11.8329 6.61086C12.3074 6.61856 12.7758 6.71971 13.2113 6.90852C13.6468 7.09734 14.0408 7.37012 14.3708 7.71127C14.6718 8.04334 14.9031 8.43245 15.051 8.85555C15.1989 9.27865 15.2604 9.72713 15.2318 10.1744C15.2331 10.2501 15.264 10.3223 15.3179 10.3755C15.3718 10.4287 15.4443 10.4587 15.52 10.4591L15.5315 10.4741C15.6078 10.4736 15.6808 10.443 15.7347 10.3891C15.7887 10.3352 15.8192 10.2622 15.8198 10.1859C15.8456 9.04383 15.4906 8.08574 14.7941 7.31811C14.094 6.55049 13.1173 6.11996 11.8702 6.03443H11.8293ZM12.3015 7.58405C11.9083 7.57255 11.8932 8.16049 12.2828 8.17199C13.2301 8.22086 13.6901 8.69955 13.7505 9.68424C13.7518 9.75898 13.7823 9.83025 13.8355 9.88277C13.8887 9.93529 13.9604 9.96491 14.0351 9.96527H14.0466C14.085 9.96362 14.1228 9.95434 14.1576 9.93795C14.1924 9.92157 14.2236 9.89841 14.2493 9.86984C14.2751 9.84127 14.2949 9.80786 14.3076 9.77155C14.3203 9.73524 14.3257 9.69676 14.3233 9.65836C14.2558 8.37468 13.5557 7.65161 12.313 7.58477H12.3015V7.58405Z" fill="#FF6418"/>
</g>
<defs>
<clipPath id="clip0">
<rect width="23" height="23" fill="white" transform="translate(0 0.400146)"/>
</clipPath>
</defs>
</svg>
