<svg width="22" height="22" viewBox="0 0 22 22" fill="none" xmlns="http://www.w3.org/2000/svg">
<path d="M19.7568 3.66672C19.6735 3.65813 19.5896 3.65813 19.5063 3.66672H2.39518C2.28551 3.66841 2.17657 3.68485 2.07129 3.7156L10.9018 12.5095L19.7568 3.66672Z" fill="#FF6418"/>
<path d="M20.6619 4.51611L11.7641 13.3772C11.5351 13.6049 11.2254 13.7326 10.9025 13.7326C10.5796 13.7326 10.2698 13.6049 10.0408 13.3772L1.22247 4.58334C1.19536 4.68297 1.18098 4.78564 1.17969 4.88889V17.1111C1.17969 17.4353 1.30846 17.7461 1.53767 17.9754C1.76688 18.2046 2.07776 18.3333 2.40191 18.3333H19.513C19.8372 18.3333 20.1481 18.2046 20.3773 17.9754C20.6065 17.7461 20.7352 17.4353 20.7352 17.1111V4.88889C20.7304 4.76157 20.7056 4.63579 20.6619 4.51611ZM3.23913 17.1111H2.38969V16.2372L6.83246 11.8311L7.69413 12.6928L3.23913 17.1111ZM19.5008 17.1111H18.6452L14.1902 12.6928L15.0519 11.8311L19.4947 16.2372L19.5008 17.1111Z" fill="#FF6418"/>
</svg>
