<svg width="22" height="22" viewBox="0 0 22 22" fill="none" xmlns="http://www.w3.org/2000/svg">
<path d="M6.9322 16.318C5.9572 16.318 5.16833 17.1158 5.16833 18.0908C5.16833 19.0658 5.9572 19.8635 6.9322 19.8635C7.9072 19.8635 8.70492 19.0658 8.70492 18.0908C8.70492 17.1158 7.9072 16.318 6.9322 16.318ZM15.7958 16.318C14.8208 16.318 14.032 17.1158 14.032 18.0908C14.032 19.0658 14.8208 19.8635 15.7958 19.8635C16.7708 19.8635 17.5686 19.0658 17.5686 18.0908C17.5686 17.1158 16.7708 16.318 15.7958 16.318ZM7.9072 11.8862H14.5106C15.1754 11.8862 15.7604 11.5228 16.0617 10.9733L19.4831 4.75987L17.932 3.90896L14.5106 10.1135H8.28833L4.51242 2.13623H1.61401V3.90896H3.38674L6.57765 10.6365L5.38106 12.7992C4.73401 13.9869 5.58492 15.4317 6.9322 15.4317H17.5686V13.659H6.9322L7.9072 11.8862Z" fill="white"/>
<path d="M8 3.88623L17.9336 3.91357L18 5.55841H8V3.88623Z" fill="white"/>
</svg>
