<svg width="34" height="54" viewBox="0 0 34 54" fill="none" xmlns="http://www.w3.org/2000/svg">
<path d="M15.4188 52.9768L18.1862 33.6048L32.8142 23.721L29.2559 31.2325L24.9071 38.7442L15.4188 52.9768Z" fill="#DC4A03"/>
<path fill-rule="evenodd" clip-rule="evenodd" d="M17 34C26.3888 34 34 26.3888 34 17C34 7.61116 26.3888 0 17 0C7.61116 0 0 7.61116 0 17C0 26.3888 7.61116 34 17 34ZM17.0004 23.7209C20.7123 23.7209 23.7214 20.7118 23.7214 17C23.7214 13.2881 20.7123 10.279 17.0004 10.279C13.2886 10.279 10.2795 13.2881 10.2795 17C10.2795 20.7118 13.2886 23.7209 17.0004 23.7209Z" fill="#FF6418"/>
</svg>
