<svg width="20" height="25" viewBox="0 0 20 25" fill="none" xmlns="http://www.w3.org/2000/svg">
<path fill-rule="evenodd" clip-rule="evenodd" d="M3.06993 3.66994C4.90788 1.83199 7.40067 0.799438 9.99993 0.799438C12.5992 0.799438 15.092 1.83199 16.9299 3.66994C18.7679 5.50789 19.8004 8.00068 19.8004 10.5999C19.8004 13.1992 18.7679 15.692 16.9299 17.5299L9.99993 24.4599L3.06993 17.5299C2.15981 16.6199 1.43785 15.5395 0.945295 14.3505C0.452736 13.1614 0.199219 11.887 0.199219 10.5999C0.199219 9.3129 0.452736 8.03847 0.945295 6.84941C1.43785 5.66035 2.15981 4.57997 3.06993 3.66994ZM9.99993 13.3999C10.7425 13.3999 11.4547 13.1049 11.9798 12.5798C12.5049 12.0547 12.7999 11.3425 12.7999 10.5999C12.7999 9.85733 12.5049 9.14514 11.9798 8.62004C11.4547 8.09494 10.7425 7.79994 9.99993 7.79994C9.25732 7.79994 8.54513 8.09494 8.02003 8.62004C7.49493 9.14514 7.19993 9.85733 7.19993 10.5999C7.19993 11.3425 7.49493 12.0547 8.02003 12.5798C8.54513 13.1049 9.25732 13.3999 9.99993 13.3999Z" fill="#FF6418"/>
</svg>
