<svg width="187" height="45" viewBox="0 0 187 45" fill="none" xmlns="http://www.w3.org/2000/svg">
<path d="M32.1251 28.563C31.2437 27.5053 30.7589 26.1833 30.7589 24.685C30.7589 21.3359 33.4911 18.6037 36.8403 18.6037C38.2945 18.6037 39.6606 19.1325 40.7183 19.9698L43.0979 17.5901C41.4233 16.1359 39.2199 15.2104 36.8403 15.2104C31.5962 15.2104 27.3657 19.4409 27.3657 24.685C27.3657 27.1087 28.2471 29.268 29.7454 30.9426L32.1251 28.563Z" fill="white"/>
<path d="M41.5998 20.895C42.4371 21.9527 42.9659 23.2747 42.9659 24.7289C42.9659 28.0781 40.2337 30.8103 36.8846 30.8103C35.4303 30.8103 34.1083 30.3255 33.0507 29.4442L30.627 31.8679C32.3015 33.3221 34.4608 34.2035 36.8405 34.2035C42.0845 34.2035 46.315 29.973 46.315 24.7289C46.315 22.3493 45.4337 20.19 43.9795 18.5154L41.5998 20.895Z" fill="white"/>
<path d="M112.064 28.563C111.183 27.5053 110.698 26.1833 110.698 24.685C110.698 21.3359 113.43 18.6037 116.779 18.6037C118.234 18.6037 119.6 19.1325 120.657 19.9698L123.037 17.5901C121.363 16.1359 119.159 15.2104 116.779 15.2104C111.535 15.2104 107.305 19.4409 107.305 24.685C107.305 27.1087 108.186 29.268 109.685 30.9426L112.064 28.563Z" fill="white"/>
<path d="M121.495 20.895C122.332 21.9527 122.861 23.2747 122.861 24.7289C122.861 28.0781 120.128 30.8103 116.779 30.8103C115.325 30.8103 114.003 30.3255 112.945 29.4442L110.522 31.8679C112.196 33.3221 114.356 34.2035 116.735 34.2035C121.979 34.2035 126.21 29.973 126.21 24.7289C126.21 22.3493 125.328 20.19 123.874 18.5154L121.495 20.895Z" fill="white"/>
<path d="M24.6338 29.0034C23.5321 30.1051 21.9897 30.8102 20.3151 30.8102C16.966 30.8102 14.2338 28.078 14.2338 24.7288C14.2338 21.3797 16.966 18.6475 20.3151 18.6475C21.9897 18.6475 23.5321 19.3526 24.6338 20.4543L26.2202 17.3695C24.5897 16.0916 22.5626 15.2983 20.3151 15.2983C15.0711 15.2983 10.8406 19.5288 10.8406 24.7729C10.8406 30.017 15.0711 34.2474 20.3151 34.2474C22.5626 34.2474 24.6338 33.4542 26.2202 32.1763L24.6338 29.0034Z" fill="white"/>
<path d="M75.1796 22.4376C75.0474 18.4274 71.7864 15.2104 67.7322 15.2104C65.3966 15.2104 63.3254 16.2681 61.9593 17.9427C60.5932 16.2681 58.5221 15.2104 56.1865 15.2104C52.0882 15.2104 48.739 18.5596 48.739 22.6579V34.1155H52.1322V22.6579C52.1322 20.4104 53.939 18.6037 56.1865 18.6037C58.4339 18.6037 60.2407 20.4104 60.2407 22.6579V34.1155H63.6339V22.6579C63.6339 20.4104 65.4407 18.6037 67.6881 18.6037C69.9356 18.6037 71.7424 20.4104 71.7424 22.6579V34.1155H75.1356L75.1796 22.4376Z" fill="white"/>
<path d="M107.26 3.8849C108.186 3.8849 108.979 4.19339 109.684 4.67813L112.108 2.25441C110.786 1.15271 109.111 0.491699 107.26 0.491699C103.206 0.491699 99.9011 3.75271 99.813 7.80694V34.1594H103.206V13.8001H108.098V10.4069H103.206V7.93914C103.206 5.69168 105.013 3.8849 107.26 3.8849Z" fill="white"/>
<path d="M136.742 15.2104C132.644 15.2104 129.295 18.5596 129.295 22.6579V34.1155H132.688V22.6579C132.688 20.4104 134.495 18.6037 136.742 18.6037C138.946 18.6037 140.752 20.3664 140.796 22.5698H144.19C144.145 18.5155 140.84 15.2104 136.742 15.2104Z" fill="white"/>
<path d="M155.074 30.6782C154.766 30.7663 154.457 30.7663 154.149 30.7663C151.901 30.7663 150.095 28.9595 150.095 26.7121V13.7562H154.942V10.363H150.095V2.82739H146.701V27.5053C146.701 30.9867 150.315 34.1595 154.149 34.1595C155.295 34.1595 156.352 33.8951 157.322 33.4544L155.074 30.6782Z" fill="white"/>
<path d="M87.6508 18.6035C88.7966 18.6035 89.8983 18.912 90.8237 19.4849L82.4508 27.8578C81.8779 26.9323 81.5695 25.8306 81.5695 24.6849C81.5695 21.3357 84.3017 18.6035 87.6508 18.6035ZM82.0101 32.3086L95.2745 19.0442C93.5559 16.7086 90.7796 15.1663 87.6508 15.1663C82.4068 15.1663 78.1763 19.3968 78.1763 24.6408C78.1763 27.8137 79.6745 30.59 82.0101 32.3086Z" fill="white"/>
<path d="M93.2915 26.9762C92.366 29.2237 90.2067 30.766 87.6508 30.766C86.9457 30.766 86.2847 30.6338 85.6678 30.4135L83.1118 32.9694C84.4779 33.7185 86.0203 34.1152 87.6508 34.1152C92.1016 34.1152 95.8033 31.0745 96.8609 26.9321H93.2915V26.9762Z" fill="white"/>
<path d="M166.091 30.7663C162.742 30.7663 160.01 28.0341 160.01 24.685C160.01 21.3359 162.742 18.6037 166.091 18.6037C169.44 18.6037 172.172 21.3359 172.172 24.685C172.172 28.0782 169.44 30.7663 166.091 30.7663ZM175.566 24.685C175.566 19.4409 171.335 15.2104 166.091 15.2104C160.847 15.2104 156.616 19.4409 156.616 24.685C156.616 29.9291 160.847 34.1596 166.091 34.1596C168.427 34.1596 170.542 33.3223 172.172 31.9562V34.1596H175.566V24.685C175.566 24.7291 175.566 24.685 175.566 24.685Z" fill="white"/>
<path d="M183.674 25.3456C183.145 34.8201 175.301 42.3116 165.738 42.3116H155.515H40.2336V44.9998H165.738C176.844 44.9998 185.877 36.2744 186.406 25.3015H183.674V25.3456Z" fill="white"/>
<path d="M180.986 24.0679H183.674C183.322 14.6374 175.61 7.10181 166.091 7.10181V9.78994C174.111 9.83401 180.633 16.1798 180.986 24.0679Z" fill="#FF6418"/>
<path d="M2.7322 24.068C3.26101 14.6375 11.1051 7.10195 20.6678 7.10195H30.8914H60.1524V4.41382H20.6678C9.5627 4.41382 0.528812 13.1392 0 24.068H2.7322Z" fill="#FF6418"/>
</svg>
