<svg width="32" height="50" viewBox="0 0 32 50" fill="none" xmlns="http://www.w3.org/2000/svg">
<path d="M14.3698 49.3725L16.9488 31.3185L30.5817 22.1071L27.2655 29.1075L23.2125 36.1082L14.3698 49.3725Z" fill="#DC4A03"/>
<path fill-rule="evenodd" clip-rule="evenodd" d="M15.8434 31.6868C24.5935 31.6868 31.6868 24.5935 31.6868 15.8434C31.6868 7.09334 24.5935 0 15.8434 0C7.09334 0 0 7.09334 0 15.8434C0 24.5935 7.09334 31.6868 15.8434 31.6868ZM15.8434 22.107C19.3027 22.107 22.1071 19.3027 22.1071 15.8434C22.1071 12.384 19.3027 9.57969 15.8434 9.57969C12.3841 9.57969 9.57974 12.384 9.57974 15.8434C9.57974 19.3027 12.3841 22.107 15.8434 22.107Z" fill="#FF6418"/>
</svg>
