<svg width="25" height="26" viewBox="0 0 25 26" fill="none" xmlns="http://www.w3.org/2000/svg">
<path d="M13.5418 21.3688C15.6432 21.1014 17.5639 20.0439 18.9135 18.4112C20.2632 16.7786 20.9405 14.6933 20.8079 12.5792C20.6752 10.465 19.7425 8.48073 18.1994 7.02958C16.6562 5.57842 14.6184 4.76931 12.5002 4.76668C10.3793 4.7651 8.33761 5.57224 6.79114 7.02364C5.24467 8.47503 4.30979 10.4615 4.17698 12.5782C4.04417 14.6949 4.72343 16.7826 6.07635 18.4159C7.42928 20.0492 9.35406 21.1052 11.4585 21.3688V15.1833H9.37516V13.1H11.4585V11.3771C11.4585 9.98439 11.6043 9.47918 11.8752 8.96981C12.1419 8.46583 12.5543 8.05386 13.0585 7.78752C13.4564 7.57397 13.9512 7.44585 14.8158 7.39064C15.1585 7.36877 15.6022 7.39585 16.147 7.47397V9.45314H15.6252C14.67 9.45314 14.2752 9.49793 14.0397 9.62397C13.8993 9.69622 13.7849 9.81059 13.7127 9.95106C13.5877 10.1865 13.5418 10.4198 13.5418 11.3761V13.1H16.146L15.6252 15.1833H13.5418V21.3688ZM12.5002 23.5167C6.74704 23.5167 2.0835 18.8531 2.0835 13.1C2.0835 7.34689 6.74704 2.68335 12.5002 2.68335C18.2533 2.68335 22.9168 7.34689 22.9168 13.1C22.9168 18.8531 18.2533 23.5167 12.5002 23.5167Z" fill="#FF6418"/>
</svg>
