<svg width="29" height="25" viewBox="0 0 29 25" fill="none" xmlns="http://www.w3.org/2000/svg">
<g clip-path="url(#clip0)">
<path d="M25.7751 3.99083C25.5453 3.82937 25.236 3.68585 24.8471 3.56028C24.4582 3.4347 23.866 3.30463 23.0706 3.17008C22.2751 3.03554 21.1394 2.9279 19.6634 2.84717C18.1874 2.76644 16.433 2.72607 14.4001 2.72607C8.24861 2.72607 4.58068 3.09384 3.39634 3.82937C1.99987 4.67254 1.16023 7.15721 0.877397 11.2834C0.842043 11.8216 0.815528 12.3328 0.797852 12.8172C0.815528 13.4272 0.855301 14.0685 0.91717 14.7413C0.979038 15.414 1.08952 16.2392 1.24861 17.217C1.4077 18.1947 1.67285 19.0737 2.04406 19.8541C2.41528 20.6345 2.8572 21.1861 3.36982 21.5091C4.55416 22.2267 8.23093 22.5854 14.4001 22.5854C20.8345 22.5854 24.6261 22.1728 25.7751 21.3476C26.2347 21.0067 26.6236 20.4685 26.9418 19.733C27.26 18.9975 27.4898 18.1723 27.6312 17.2573C27.7726 16.3424 27.8654 15.5396 27.9096 14.8489C27.9538 14.1582 27.9847 13.472 28.0024 12.7903C27.9847 12.1804 27.9538 11.539 27.9096 10.8663C27.8654 10.1935 27.777 9.36381 27.6444 8.37712C27.5119 7.39043 27.2865 6.49792 26.9683 5.6996C26.6501 4.90128 26.2524 4.33169 25.7751 3.99083ZM24.7675 19.9483C24.6085 20.0559 24.308 20.1681 23.866 20.2847C23.4241 20.4013 22.3679 20.5269 20.6975 20.6614C19.027 20.796 16.9279 20.8632 14.4001 20.8632C11.9431 20.8632 9.90139 20.8004 8.27512 20.6749C6.64886 20.5493 5.61477 20.4372 5.17285 20.3385C4.73093 20.2398 4.42159 20.1367 4.24482 20.029C3.8029 19.7599 3.40959 18.9706 3.0649 17.661C2.7202 16.3514 2.53017 14.7368 2.49482 12.8172C2.53017 10.8797 2.72462 9.20683 3.07815 7.79856C3.43169 6.39028 3.82942 5.55159 4.27134 5.2825C4.43043 5.1928 4.73093 5.09413 5.17285 4.98649C5.61477 4.87885 6.64886 4.76224 8.27512 4.63666C9.90139 4.51109 11.9431 4.4483 14.4001 4.4483C16.9279 4.4483 19.027 4.51557 20.6975 4.65012C22.3679 4.78467 23.4241 4.91025 23.866 5.02686C24.308 5.14346 24.6085 5.26456 24.7675 5.39014C24.962 5.51572 25.1476 5.78481 25.3244 6.19743C25.5011 6.61004 25.6602 7.12581 25.8016 7.74474C25.9431 8.36366 26.058 9.11265 26.1463 9.9917C26.2347 10.8707 26.2878 11.8036 26.3054 12.7903C26.2878 14.7278 26.1287 16.3289 25.8282 17.5937C25.5277 18.8585 25.1741 19.6433 24.7675 19.9483ZM19.9153 11.983L12.2789 7.22C11.9961 7.0406 11.7133 7.03611 11.4304 7.20654C11.1476 7.37697 11.0062 7.63261 11.0062 7.97347V17.4726C11.0062 17.8135 11.1476 18.0646 11.4304 18.2261C11.5718 18.2978 11.7133 18.3337 11.8547 18.3337C11.9254 18.3337 12.0005 18.3247 12.08 18.3068C12.1596 18.2889 12.2259 18.253 12.2789 18.1992L19.9153 13.4631C20.1981 13.2837 20.3395 13.0325 20.3395 12.7096C20.3218 12.3867 20.1804 12.1445 19.9153 11.983ZM12.7032 15.9387V9.48041L17.8471 12.7096L12.7032 15.9387Z" fill="#FF6418"/>
</g>
<defs>
<clipPath id="clip0">
<rect width="28" height="24.1111" fill="white" transform="translate(0.399902 0.600098)"/>
</clipPath>
</defs>
</svg>
