<svg width="17" height="18" viewBox="0 0 17 18" fill="none" xmlns="http://www.w3.org/2000/svg">
<path d="M16.4444 14.4055C16.0391 13.4455 15.451 12.5735 14.7127 11.8381C13.9768 11.1005 13.1049 10.5125 12.1454 10.1064C12.1368 10.1021 12.1282 10.1 12.1196 10.0957C13.4581 9.12891 14.3282 7.5541 14.3282 5.77734C14.3282 2.83398 11.9434 0.449219 9.00005 0.449219C6.05669 0.449219 3.67193 2.83398 3.67193 5.77734C3.67193 7.5541 4.54205 9.12891 5.88052 10.0979C5.87193 10.1021 5.86333 10.1043 5.85474 10.1086C4.89224 10.5146 4.02857 11.0969 3.28736 11.8402C2.54982 12.5762 1.96178 13.4481 1.55572 14.4076C1.1568 15.347 0.941656 16.3542 0.921929 17.3746C0.921355 17.3975 0.925377 17.4204 0.933758 17.4417C0.942138 17.4631 0.954707 17.4825 0.970725 17.4989C0.986742 17.5153 1.00588 17.5284 1.02702 17.5373C1.04816 17.5462 1.07087 17.5508 1.0938 17.5508H2.38287C2.4774 17.5508 2.55259 17.4756 2.55474 17.3832C2.59771 15.7246 3.26373 14.1713 4.44107 12.9939C5.65923 11.7758 7.27701 11.1055 9.00005 11.1055C10.7231 11.1055 12.3409 11.7758 13.559 12.9939C14.7364 14.1713 15.4024 15.7246 15.4454 17.3832C15.4475 17.4777 15.5227 17.5508 15.6172 17.5508H16.9063C16.9292 17.5508 16.9519 17.5462 16.9731 17.5373C16.9942 17.5284 17.0134 17.5153 17.0294 17.4989C17.0454 17.4825 17.058 17.4631 17.0663 17.4417C17.0747 17.4204 17.0788 17.3975 17.0782 17.3746C17.0567 16.3477 16.844 15.3486 16.4444 14.4055ZM9.00005 9.47266C8.01392 9.47266 7.0858 9.08809 6.38755 8.38984C5.68931 7.6916 5.30474 6.76348 5.30474 5.77734C5.30474 4.79121 5.68931 3.86309 6.38755 3.16484C7.0858 2.4666 8.01392 2.08203 9.00005 2.08203C9.98619 2.08203 10.9143 2.4666 11.6126 3.16484C12.3108 3.86309 12.6954 4.79121 12.6954 5.77734C12.6954 6.76348 12.3108 7.6916 11.6126 8.38984C10.9143 9.08809 9.98619 9.47266 9.00005 9.47266Z" fill="white"/>
</svg>
